# xmcd CD database file
#
# Track frame offsets:
#	150
#	13635
#	28752
#	48365
#	65615
#	80512
#	96027
#	113820
#	133770
#	155977
#	176140
#	195805
#
# Disc length: 2864 seconds
#
# Revision: 0
# Processed by: cddbd v1.5.2PL0 Copyright (c) Steve Scherf et al.
# Submitted via: CDex 1.51
#
DISCID=9e0b2e0c
DTITLE=FENTON ROBINSON - SOMEBODY LOAN ME A DIME
DYEAR=1900
DGENRE=Blues
TTITLE0=SOMEBODY LOAN ME A DIME
TTITLE1=THE GETWAY
TTITLE2=DIRECTLY FROM MY HEART TO YOU
TTITLE3=GOING TO CHICAGO
TTITLE4=YOU SAY YOU'RE LEAVING
TTITLE5=CHECKING ON MY WOMAN
TTITLE6=YOU DON'T KNOW  WHAT LOVE IS
TTITLE7=I'VE CHANGED
TTITLE8=COUNTRY GIRL
TTITLE9=GOTTA WAKE UP
TTITLE10=TEXAS FLOOD
TTITLE11=LITTLE TOUCH
EXTD=
EXTT0=
EXTT1=
EXTT2=
EXTT3=
EXTT4=
EXTT5=
EXTT6=
EXTT7=
EXTT8=
EXTT9=
EXTT10=
EXTT11=
PLAYORDER=
